<?xml version="1.0" encoding="UTF-8" standalone="no"?>
<!-- Created with Inkscape (http://www.inkscape.org/) -->

<svg
   width="295.95428mm"
   height="305.82117mm"
   viewBox="0 0 295.95428 305.82117"
   version="1.1"
   id="svg3490"
   inkscape:version="1.2 (dc2aedaf03, 2022-05-15)"
   sodipodi:docname="canteen.svg"
   xmlns:inkscape="http://www.inkscape.org/namespaces/inkscape"
   xmlns:sodipodi="http://sodipodi.sourceforge.net/DTD/sodipodi-0.dtd"
   xmlns="http://www.w3.org/2000/svg"
   xmlns:svg="http://www.w3.org/2000/svg">
  <sodipodi:namedview
     id="namedview3492"
     pagecolor="#ffffff"
     bordercolor="#999999"
     borderopacity="1"
     inkscape:showpageshadow="0"
     inkscape:pageopacity="0"
     inkscape:pagecheckerboard="0"
     inkscape:deskcolor="#d1d1d1"
     inkscape:document-units="mm"
     showgrid="false"
     inkscape:zoom="0.79018659"
     inkscape:cx="559.36156"
     inkscape:cy="578.34441"
     inkscape:window-width="942"
     inkscape:window-height="1032"
     inkscape:window-x="8"
     inkscape:window-y="34"
     inkscape:window-maximized="0"
     inkscape:current-layer="layer1" />
  <defs
     id="defs3487" />
  <g
     inkscape:label="Layer 1"
     inkscape:groupmode="layer"
     id="layer1"
     transform="translate(43.173282,4.2431678)">
    <circle
       cx="29.070837"
       cy="69.156013"
       r="58.039917"
       fill="#ff6884"
       id="circle112615"
       style="stroke-width:0.403357" />
    <path
       d="M 115.7816,18.18423 3.9915229,79.761896 C -8.9220957,96.318847 236.45513,97.342405 234.43017,79.822774 L 126.02784,18.245136 c -3.08539,-1.752691 -7.131,-1.776738 -10.24624,-0.06092 z"
       fill="#6c63ff"
       id="path112617"
       style="stroke-width:0.403357" />
    <path
       d="M 115.7816,18.18423 3.9915229,79.761896 C -8.9220957,96.318847 236.45513,97.342405 234.43017,79.822774 L 126.02784,18.245136 c -3.08539,-1.752691 -7.131,-1.776738 -10.24624,-0.06092 z"
       isolation="isolate"
       opacity="0.2"
       id="path112619"
       style="stroke-width:0.403357" />
    <path
       d="m 233.96688,300.8391 -28.43642,-0.60607 H 10.539548 l -53.71283,-1.21214 C 134.90015,256.93574 80.148144,260.55943 233.96688,300.8391 Z"
       fill="#f2f2f2"
       isolation="isolate"
       opacity="0.8"
       id="path112621"
       style="stroke-width:0.403357" />
    <path
       d="m 207.78718,299.02089 -2.25672,1.21214 H 10.539548 c 133.291102,-27.514 53.378584,-25.09155 197.247632,-1.21214 z"
       fill="#e6e6e6"
       id="path112623"
       style="stroke-width:0.403357" />
    <path
       d="m 113.57017,13.043684 h 8.39257 l -2.83033,-15.9519135 c -0.17206,-0.985547 -0.8451,-1.3349383 -1.36608,-1.3349383 -0.52123,0 -1.19124,0.3493989 -1.36608,1.3349383 z"
       fill="#3f3d56"
       id="path112625"
       style="stroke-width:0.403357" />
    <rect
       x="112.77406"
       y="65.676346"
       width="9.2530403"
       height="225.68404"
       fill="#3f3d56"
       id="rect112627"
       style="stroke-width:0.403357" />
    <path
       d="m 117.42753,100.90729 c -3.94794,0 -7.6588,-1.528654 -10.46459,-4.314 L 83.610027,73.40778 85.517833,71.485946 108.87074,94.671454 c 2.32226,2.305328 5.38715,3.563784 8.67521,3.527189 3.27186,-0.03087 6.32839,-1.341319 8.60688,-3.689843 l 22.31526,-23.004791 1.94398,1.8857 -22.3155,23.004787 c -2.78631,2.872184 -6.52374,4.474454 -10.52507,4.512364 -0.0455,4e-4 -0.0961,4e-4 -0.14169,4e-4 v -10e-6 z"
       fill="#3f3d56"
       id="path112629"
       style="stroke-width:0.403357" />
    <path
       d="m 120.66296,83.206581 c -11.49087,0 -23.072309,-0.03942 -34.313688,-0.118972 C 62.532569,82.918234 42.19875,82.583807 27.545587,82.119787 2.5705365,81.329227 2.3046076,80.430729 2.1904935,80.04746 2.1525398,79.9588 2.1525398,79.786703 2.390383,79.631895 L 113.8738,6.3181548 c 2.68054,-1.7674462 6.13003,-1.7434174 8.78729,0.063026 L 235.37168,79.692158 c 0.23531,0.159532 0.22266,0.332079 0.19736,0.420691 -0.13917,0.450627 -0.56729,1.8218 -50.05536,2.627334 -18.82908,0.306469 -41.64912,0.466383 -64.84946,0.466383 z"
       fill="#6c63ff"
       id="path112631"
       style="fill:#c4ecf9;fill-opacity:1;stroke-width:0.403357" />
    <path
       d="M 179.01322,298.55302 118.58815,189.60883 a 1.6253182,1.6253182 0 0 0 -0.80689,-1.3021 1.6065929,1.6065929 0 0 0 -0.87294,-0.21089 c 0,-7.3e-4 -0.0354,-1.6e-4 -0.0354,-7.3e-4 0,7.3e-4 -0.0329,-2e-5 -0.0329,7.3e-4 a 1.6033372,1.6033372 0 0 0 -1.6725,1.4609 L 51.125712,298.55299 a 1.6241804,1.6241804 0 1 0 2.813128,1.62424 l 62.88725,-107.03079 59.36413,107.03079 a 1.6241946,1.6241946 0 1 0 2.81313,-1.62424 z"
       fill="#3f3d56"
       id="path113328"
       style="stroke-width:0.360937" />
    <polygon
       points="400.794,685.02 393.053,609.967 365.125,616.374 381.871,689.362 "
       fill="#ffb6b6"
       id="polygon113330"
       transform="matrix(0.36093638,0,0,0.36093638,-30.96459,31.045353)" />
    <path
       d="m 112.14716,266.77462 -9.71994,2.2297 -3.107905,-6.07347 -0.177117,-0.21533 a 9.6645375,9.6645375 0 0 1 -2.171205,-5.98384 l -8.07857,-21.36989 -0.660648,-0.31406 a 3.9782662,3.9782662 0 0 1 -1.632768,-5.75175 l -0.855223,-2.26217 -24.132984,0.0443 -0.03542,-0.008 -29.634752,-8.31299 3.111697,-18.54898 8.336149,5.24387 c 2.746836,-0.17836 49.802081,-3.06736 54.149045,7.47803 3.871021,9.39066 9.449201,25.43409 13.447241,37.23922 a 9.2156915,9.2156915 0 0 0 0.7401,1.52496 6.6566342,6.6566342 0 0 1 1.06017,3.19958 7.7939413,7.7939413 0 0 0 0.28288,1.46401 c 1.66162,4.96736 -0.86989,10.28454 -0.8957,10.33781 z"
       fill="#2f2e41"
       id="path113332"
       style="stroke-width:0.360937" />
    <path
       d="m 104.5592,277.59615 2.22055,-0.50949 7.86097,-5.51454 5.45521,2.45927 7.6e-4,-1.5e-4 a 10.159082,10.159082 0 0 1 12.17276,7.62983 l 0.0709,0.32177 -25.43809,5.83647 z"
       fill="#2f2e41"
       id="path113334"
       style="stroke-width:0.360937" />
    <ellipse
       cx="118.50325"
       cy="188.5941"
       rx="56.847488"
       ry="8.121069"
       fill="#3f3d56"
       id="ellipse113384"
       style="stroke-width:0.360937" />
    <rect
       x="191.59283"
       y="238.94473"
       width="45.477985"
       height="6.4968548"
       rx="3.2484241"
       fill="#3f3d56"
       id="rect113386"
       style="stroke-width:0.360937" />
    <path
       d="m 252.71373,181.02887 -12.8744,61.16067 3.35308,15.65382 6.33068,29.54262 v 13.27886 a 0.27998199,0.27998199 0 0 1 0,0.0541 2.5032057,2.5032057 0 0 1 -0.1594,0.85901 h -5.08884 a 2.5030325,2.5030325 0 0 1 -0.1594,-0.85901 0.27970042,0.27970042 0 0 1 0,-0.0541 v -12.70857 l -5.74644,-26.81396 -1.16215,-5.41405 -2.24888,-10.49241 -0.64951,-3.0391 v -0.004 l 0.64268,-3.04629 0.49441,-2.34971 11.97591,-56.87996 a 2.7069004,2.7069004 0 1 1 5.29833,1.11166 z"
       fill="#3f3d56"
       id="path113388"
       style="stroke-width:0.360937" />
    <path
       d="m 197.54829,242.19315 v 58.47169 a 0.27998199,0.27998199 0 0 1 0,0.0541 2.5032057,2.5032057 0 0 1 -0.15941,0.85901 h -5.08908 a 2.5030325,2.5030325 0 0 1 -0.15941,-0.85901 0.27970042,0.27970042 0 0 1 0,-0.0541 v -58.47169 a 2.7071751,2.7071751 0 0 1 5.41422,0 z"
       fill="#3f3d56"
       id="path113390"
       style="stroke-width:0.360937" />
    <path
       d="m 201.33834,232.44787 h 25.98715 a 9.7452827,9.7452827 0 0 1 9.74575,9.74528 v 0 H 191.5931 v 0 a 9.7452827,9.7452827 0 0 1 9.74524,-9.74528 z"
       fill="#3f3d56"
       id="path113392"
       style="stroke-width:0.360937" />
    <path
       d="m 240.31907,261.14231 h -45.47789 a 2.707025,2.707025 0 0 1 0,-5.41405 h 45.47789 a 2.707025,2.707025 0 0 1 0,5.41405 z"
       fill="#3f3d56"
       id="path113394"
       style="stroke-width:0.360937" />
    <rect
       x="-77.898232"
       y="-245.54002"
       width="52.368587"
       height="7.481226"
       rx="3.2484241"
       transform="scale(-1)"
       fill="#3f3d56"
       id="rect113396"
       style="stroke-width:0.360937" />
    <path
       d="m 28.30542,241.84305 -0.83068,3.42167 -3.045911,12.5317 -1.313704,5.41405 -6.099918,25.11398 v 10.89665 a 2.6681322,2.6681322 0 0 1 -0.454938,1.49789 2.6137063,2.6137063 0 0 1 -0.927335,0.85901 H 12.98326 a 2.613739,2.613739 0 0 1 -0.927589,-0.85901 2.6682982,2.6682982 0 0 1 -0.454938,-1.49789 v -11.54634 l 6.778783,-27.9004 4.374543,-18.01795 -14.8343286,-70.47283 a 2.705241,2.705241 0 1 1 5.2950466,-1.11166 l 13.712164,65.12376 0.631044,3.00299 0.736302,3.50105 z"
       fill="#3f3d56"
       id="path113398"
       style="stroke-width:0.360937" />
    <path
       d="m 76.865656,241.79972 v 57.42138 a 2.666923,2.666923 0 0 1 -0.454939,1.49789 2.6137496,2.6137496 0 0 1 -0.927335,0.85901 h -2.653216 a 2.6343845,2.6343845 0 0 1 -0.923793,-0.85901 2.6681575,2.6681575 0 0 1 -0.454686,-1.49789 v -57.42138 a 2.7070231,2.7070231 0 1 1 5.413969,0 z"
       fill="#3f3d56"
       id="path113400"
       style="stroke-width:0.360937" />
    <path
       d="M 77.898249,241.7994 H 25.529486 v -1.47656 a 9.7452827,9.7452827 0 0 1 9.744991,-9.74528 h 32.878022 a 9.7452827,9.7452827 0 0 1 9.74575,9.74528 z"
       fill="#3f3d56"
       id="path113402"
       style="stroke-width:0.360937" />
    <path
       d="M 74.15728,263.20939 H 21.78877 a 2.707025,2.707025 0 0 1 0,-5.41405 h 52.36851 a 2.707025,2.707025 0 0 1 0,5.41405 z"
       fill="#3f3d56"
       id="path113404"
       style="stroke-width:0.360937" />
    <polygon
       points="461.95,701.112 483.603,635.223 506.869,646.349 477.713,708.651 "
       fill="#9e616a"
       id="polygon113406"
       transform="matrix(0.36093638,0,0,0.36093638,-30.96459,31.045353)" />
    <polygon
       points="567.592,706.865 543.033,642.018 568.051,635.845 584.542,702.683 "
       fill="#9e616a"
       id="polygon113408"
       transform="matrix(0.36093638,0,0,0.36093638,-30.96459,31.045353)" />
    <path
       d="m 156.56892,183.45692 a 5.931268,5.931268 0 0 0 8.03531,2.01581 5.6817849,5.6817849 0 0 0 0.76236,-0.55254 l 17.98777,10.32269 -0.78159,-10.59651 -16.96151,-8.17803 a 5.9092505,5.9092505 0 0 0 -7.16818,-0.93363 5.6867154,5.6867154 0 0 0 -1.87416,7.92221 z"
       fill="#9e616a"
       id="path113410"
       style="stroke-width:0.360937" />
    <path
       d="m 175.62092,191.35583 3.17951,1.93775 14.2802,8.70795 a 8.4198665,8.4198665 0 0 0 11.60852,-2.67939 8.2383732,8.2383732 0 0 0 1.05005,-5.81583 l -6.34687,-31.7091 a 8.7983841,8.7983841 0 0 0 -11.55032,-6.67687 8.3771284,8.3771284 0 0 0 -5.28543,10.17674 l 6.63658,22.50334 -10.17285,-4.74289 z"
       fill="#e6e6e6"
       id="path113412"
       style="fill:#9d5d7d;fill-opacity:1;stroke-width:0.360937" />
    <path
       d="m 168.10255,278.11002 -9.78953,-19.63456 0.001,-0.045 0.96656,-36.01292 c 0,-0.32022 0.038,-0.64203 0.0759,-0.95856 a 10.955199,10.955199 0 0 1 4.16832,-7.37242 10.526681,10.526681 0 0 1 7.85136,-2.14728 l 27.99464,3.62276 0.97061,-3.96978 0.17964,-0.0659 26.82264,-9.83023 0.15688,0.25166 c 3.51274,5.71594 5.96859,17.13356 6.63759,20.49671 v 0.0484 c 0,0.0709 0.0354,0.11378 0.0354,0.12631 1.38076,5.7392 -4.32469,15.2464 -10.00864,16.67532 -11.97237,3.05157 -22.67961,0.6713 -35.07756,-2.08541 -4.4459,-0.98888 -9.04032,-2.01072 -14.10157,-2.8942 l 0.15181,2.97861 a 22.320483,22.320483 0 0 0 1.41213,6.69988 c 0.90229,2.64288 1.61506,4.73044 0.10627,9.08296 l -0.72896,2.10553 a 7.1769136,7.1769136 0 0 1 -0.73782,6.36293 l -0.14422,0.22397 6.45617,16.33734 z"
       fill="#2f2e41"
       id="path113414"
       style="stroke-width:0.360937" />
    <path
       d="m 152.01752,269.42692 -11.67431,-1.08509 4.13594,-13.22724 a 86.359564,86.359564 0 0 1 6.37926,-25.09125 l 5.64144,-13.36981 c 0,-0.29749 0.0379,-0.59691 0.0759,-0.89035 a 10.953337,10.953337 0 0 1 4.16833,-7.37225 10.532618,10.532618 0 0 1 7.8511,-2.1471 l 27.95315,3.61747 1.21731,-10.21846 26.82997,-3.59034 0.12398,0.19987 c 4.68981,7.63025 7.6669,13.60366 9.3695,18.79883 0.086,0.26487 0.16194,0.53524 0.22773,0.80452 1.39011,5.77797 -2.08037,11.63597 -7.73598,13.05822 -14.41431,3.67492 -31.74725,3.57288 -54.53642,-0.32267 l -11.02909,26.24718 a 40.30809,40.30809 0 0 1 -3.89583,7.14506 z"
       fill="#2f2e41"
       id="path113416"
       style="stroke-width:0.360937" />
    <ellipse
       cx="192.73967"
       cy="123.09743"
       rx="13.523349"
       ry="13.824722"
       fill="#9e616a"
       id="ellipse113418"
       style="stroke-width:0.360937" />
    <path
       d="m 196.64448,210.34385 -1.94044,-6.95137 -0.47695,-3.42889 -2.78884,0.0931 -5.47343,-12.63401 -2.12642,-3.33145 q -0.65002,-0.68469 -1.17808,-1.31685 a 29.678211,29.678211 0 0 1 -5.2533,-8.45945 22.226788,22.226788 0 0 1 -1.53814,-6.96635 c -0.39649,-7.05906 2.57934,-14.52751 9.09776,-22.83081 a 3.9176038,3.9176038 0 0 1 -0.21507,-0.91045 3.8516279,3.8516279 0 0 1 3.34878,-4.2641 l 6.28741,-0.70601 a 3.7109026,3.7109026 0 0 1 2.75164,0.80223 3.8575618,3.8575618 0 0 1 1.42478,2.61873 3.9444573,3.9444573 0 0 1 -0.44456,2.28088 16.790721,16.790721 0 0 1 13.93584,11.72638 111.51006,111.51006 0 0 1 8.94391,22.09151 c 0.4309,1.50085 0.23784,3.04717 0.0506,4.54255 -0.17206,1.38136 -0.34842,2.80977 -0.0506,4.23342 0.30388,1.44798 1.03158,2.90053 1.80255,4.43839 0.88356,1.76132 1.79698,3.58257 2.04393,5.43907 l 0.0354,0.13041 z"
       fill="#e4e4e4"
       id="path113420"
       style="fill:#9d5d7d;fill-opacity:1;stroke-width:0.360937" />
    <path
       d="m 177.57402,174.24651 a 29.581265,29.581265 0 0 0 5.22496,8.41181 c 0.37675,0.45034 0.77501,0.89272 1.19225,1.33589 l 2.13881,3.3566 c 7.88628,-5.91089 14.27515,-29.18451 14.27515,-29.18451 l -8.89711,-1.73081 z"
       opacity="0.2"
       style="isolation:isolate;stroke-width:0.360937"
       id="path113422" />
    <path
       d="m 172.18738,138.21367 a 5.944904,5.944904 0 0 1 -2.0075,8.04515 5.7043507,5.7043507 0 0 1 -0.84662,0.41521 l 0.63003,20.73033 -8.97732,-5.65122 0.77806,-18.81948 a 5.9284129,5.9284129 0 0 1 2.55377,-6.7723 5.6734799,5.6734799 0 0 1 7.86958,2.05231 z"
       fill="#9e616a"
       id="path113424"
       style="stroke-width:0.360937" />
    <polygon
       points="349.518,725.567 358.754,650.683 330.101,650.684 330.104,725.568 "
       fill="#ffb6b6"
       id="polygon113428"
       transform="matrix(0.36093638,0,0,0.36093638,-30.96459,31.045353)" />
    <circle
       cx="48.463421"
       cy="123.33772"
       r="13.985718"
       fill="#ffb6b6"
       id="circle113430"
       style="stroke-width:0.360937" />
    <path
       d="m 97.476031,284.60319 h -9.922868 l -2.52974,-3.39101 -0.684685,-3.19484 -0.5898,-0.57032 a 4.9188916,4.9188916 0 0 1 -0.828909,-6.04939 L 75.72831,237.84448 c -1.883516,-0.16563 -23.124681,-2.06482 -37.89044,-4.67809 -3.778923,-0.66864 -6.729443,-2.50558 -8.769328,-5.45952 -5.012671,-7.25873 -2.865251,-19.00362 -2.843238,-19.12135 l 0.03542,-0.13086 0.131572,-0.0152 34.489283,-3.87107 0.04554,0.022 c 1.144431,0.54214 28.081434,13.32997 32.483304,17.73188 1.987508,1.9878 6.422271,13.79773 7.415387,26.35331 0.17712,2.24916 -0.46227,4.53991 -1.081168,6.75523 -0.579174,2.07274 -1.178083,4.21597 -1.059668,6.24219 0.182178,3.12628 0.3555,6.40574 0.514399,9.7472 0.03542,0.53242 0.426347,1.08353 0.814227,1.61628 0.40535,0.55673 0.78792,1.08246 0.81247,1.63286 0.23531,5.33594 -3.251874,9.82035 -3.287044,9.86493 z"
       fill="#2f2e41"
       id="path113432"
       style="stroke-width:0.360937" />
    <path
       d="m 99.735541,160.58859 a 5.327746,5.327746 0 0 0 -6.710973,4.65861 l -11.62041,3.63193 0.484796,7.60005 16.338307,-5.35946 a 5.356628,5.356628 0 0 0 1.50828,-10.53112 z"
       fill="#ffb6b6"
       id="path113434"
       style="stroke-width:0.360937" />
    <path
       d="m 92.153657,173.16519 -8.684817,3.28711 -0.220132,0.4308 a 4.3816958,4.3816958 0 0 1 -5.902306,1.88716 v 0 l -19.521104,7.3884 c 0,0 -8.717458,-8.72392 -14.924405,-16.50952 l 2.115539,-13.01103 a 24.925145,24.925145 0 0 1 3.071972,-8.56355 c 12.728911,2.79118 20.03525,20.585 20.03525,20.585 l 22.940732,-4.37718 z"
       fill="#6c63ff"
       id="path113436"
       style="fill:#564fcc;fill-opacity:1;stroke-width:0.360937" />
    <path
       d="m 46.476131,136.57588 c -3.501608,0.94563 -7.361499,-0.31159 -10.094165,-2.69639 -2.732413,-2.38479 -4.441594,-5.76403 -5.426366,-9.25451 -0.721374,-2.55635 -1.063463,-5.39402 0.07591,-7.79394 1.138358,-2.39993 4.201727,-4.0191 6.564977,-2.80682 -1.457928,-1.69865 -0.72947,-4.5081 0.973133,-5.96123 1.702856,-1.45313 4.040804,-1.86974 6.267927,-2.09748 3.23163,-0.3305 6.57029,-0.3675 9.645805,0.67953 3.075514,1.04703 5.869412,3.33613 6.832171,6.43903 a 4.9006898,4.9006898 0 0 0 5.845122,-1.31975 4.4399291,4.4399291 0 0 1 -2.446242,4.81417 l 4.712078,-1.5277 c 0.810185,1.71532 -0.609789,3.83829 -2.425494,4.38758 -1.815958,0.5493 -3.775887,-0.0511 -5.498985,-0.84469 -1.72335,-0.79359 -3.39306,-1.79691 -5.264936,-2.10643 -1.871624,-0.30951 -4.070155,0.29191 -4.936005,1.97995 -0.45342,0.88414 -0.476951,1.91961 -0.740097,2.87774 -0.262387,0.95814 -0.930372,1.9515 -1.920963,2.02991 -0.62573,0.0495 -1.238556,-0.2838 -1.862515,-0.21565 -0.773496,0.0845 -1.36608,0.78534 -1.571789,1.53585 a 5.8926114,5.8926114 0 0 0 0,2.31846 l 1.196554,9.14904"
       fill="#2f2e41"
       id="path113438"
       style="stroke-width:0.360937" />
    <path
       d="m 29.148751,229.37813 a 0.03380169,0.03380169 0 0 1 0,-7.2e-4 l -0.108801,-0.019 -0.03542,-0.10751 c -0.402056,-1.35244 -0.913672,-2.7368 -1.408588,-4.07569 a 49.145059,49.145059 0 0 1 -1.842526,-5.67981 43.501729,43.501729 0 0 1 -0.814233,-5.59117 c -0.139164,-1.36443 -0.279592,-2.77539 -0.523761,-4.16432 -0.106271,-0.61668 0.30034,-1.20072 0.696071,-1.76558 0.366126,-0.52359 0.712011,-1.0183 0.639646,-1.48621 -0.07338,-0.47848 -0.605235,-1.00404 -1.118622,-1.51231 -0.562221,-0.55708 -1.143671,-1.1332 -1.226157,-1.73947 a 173.29041,173.29041 0 0 1 -1.561669,-24.96365 c 0.116392,-11.55013 0.637876,-19.42288 1.551548,-23.39986 2.456616,-10.69346 13.805277,-12.64494 15.582016,-12.88586 a 3.9226025,3.9226025 0 0 1 5.304915,-2.18802 l 8.063895,3.69131 a 13.127661,13.127661 0 0 1 6.979432,7.7952 l 1.197818,3.65185 0.600175,24.51459 -3.325503,17.26311 6.497419,9.74529 C 29.670488,225.47079 29.266407,229.378 29.155076,229.378 Z"
       fill="#6c63ff"
       id="path113440"
       style="fill:#564fcc;fill-opacity:1;stroke-width:0.360937" />
    <path
       d="m 84.411103,290.20576 2.278487,-10e-5 8.894575,-3.61732 4.767495,3.61676 h 7.5e-4 a 10.159093,10.159093 0 0 1 10.15818,10.15836 v 0.33012 l -26.099234,10e-4 z"
       fill="#2f2e41"
       id="path113442"
       style="stroke-width:0.360937" />
    <path
       d="m 102.64482,178.08237 a 5.327746,5.327746 0 0 0 -7.693722,2.74638 l -12.165425,0.47439 -1.639094,5.66674 17.294994,0.88534 a 5.356628,5.356628 0 0 0 4.203247,-9.77285 z"
       fill="#ffb6b6"
       id="path113444"
       style="stroke-width:0.360937" />
    <path
       d="m 92.652116,188.46632 -12.496634,-0.15578 -1.58191,-0.0215 -25.424675,-0.32035 c 0,0 -6.90403,-6.58678 -12.916149,-13.36836 l 0.842572,-6.09484 a 24.901381,24.901381 0 0 1 8.34956,-15.41769 c 8.610176,5.75348 13.60387,17.14185 13.60387,17.14185 l 8.372332,3.74642 v 0 a 36.65634,36.65634 0 0 1 16.737074,4.90174 l 2.753667,1.59511 z"
       fill="#6c63ff"
       id="path113446"
       style="fill:#564fcc;fill-opacity:1;stroke-width:0.360937" />
    <path
       d="m 184.4821,296.19794 -4.15796,1.02614 -1.71095,-3.74248 -0.9324,4.39473 -11.02782,2.72158 a 2.5533615,2.5533615 0 0 1 -2.52392,-4.17136 l 7.30558,-8.25551 -0.97921,-3.96867 9.39936,-1.73314 z"
       fill="#2f2e41"
       id="path113448"
       style="stroke-width:0.360937" />
    <path
       d="m 140.43253,297.48108 -3.9649,-1.6185 0.82006,-4.03245 -3.34043,3.00368 -10.51672,-4.29259 a 2.5533615,2.5533615 0 0 1 0.41572,-4.85769 l 10.76569,-2.37213 1.54472,-3.78462 8.61802,4.13283 z"
       fill="#2f2e41"
       id="path113450"
       style="stroke-width:0.360937" />
    <path
       d="m 228.92689,117.1017 c -2.29848,-2.68064 -3.39129,-6.23717 -5.22901,-9.28116 -1.83747,-3.04402 -5.03545,-5.76842 -8.41383,-5.06005 -2.32884,0.48835 -4.1286,2.54332 -5.03974,4.83438 -0.91089,2.29106 -1.08169,4.81764 -1.2416,7.29282 0.0557,-5.0866 -3.29463,-10.01773 -7.91081,-11.6408 -4.61644,-1.62307 -10.14072,0.18739 -13.04165,4.27387 a 7.0488606,7.0488606 0 0 0 -9.36191,-0.19655 c -2.59477,2.31895 -3.16914,6.73267 -1.26057,9.69054 1.90806,2.95788 6.04046,4.05977 9.0727,2.41929 l 1.07207,0.98617 c -0.60321,2.11057 0.56677,4.60365 2.53404,5.39814 1.59532,0.64433 3.84724,0.53707 4.44412,2.21106 0.41724,1.16968 -0.36258,2.41817 -1.19199,3.31699 -0.82917,0.89879 -1.81394,1.82695 -1.91312,3.07073 -0.15182,1.87666 1.78837,3.19129 3.55145,3.58721 4.25081,0.95472 8.9677,-1.01377 11.41774,-4.76521 q 0.0708,-0.10852 0.15687,-0.21727 a 16.415362,16.415362 0 0 0 3.30197,-12.55166 c -0.13916,-0.86705 0.001,-1.51196 0.59891,-1.71731 2.58389,-0.88754 9.82318,0.97525 12.01412,2.65878 2.19069,1.68354 3.94516,3.91155 6.05564,5.70374 2.11022,1.79221 4.79937,3.17465 7.4789,2.6866 2.14641,-0.39088 3.97198,-1.9489 5.19991,-3.82817 1.22793,-1.87927 1.93437,-4.06983 2.56744,-6.24681 -4.74522,2.7414 -11.24011,1.59385 -14.85837,-2.62532 z"
       fill="#2f2e41"
       id="path113470"
       style="stroke-width:0.360937" />
    <path
       d="m 170.07386,157.34721 -9.59039,1.36378 0.41243,19.86053 a 8.3098628,8.3098628 0 0 0 4.06256,7.00301 v 0 a 7.9621133,7.9621133 0 0 0 9.51044,-1.07982 l 22.64241,-21.77876 a 8.584933,8.584933 0 0 0 0.63282,-11.78853 v 0 a 8.1418312,8.1418312 0 0 0 -11.66469,-0.79873 8.3528929,8.3528929 0 0 0 -0.63762,0.635 l -14.95123,17.19952 z"
       fill="#e6e6e6"
       id="path115760"
       style="fill:#9d5d7d;fill-opacity:1;stroke-width:0.350634" />
  </g>
</svg>
