<?xml version="1.0" encoding="UTF-8" standalone="no"?>
<!-- Created with Inkscape (http://www.inkscape.org/) -->

<svg
   width="306.22662mm"
   height="177.36218mm"
   viewBox="0 0 306.22662 177.36218"
   version="1.1"
   id="svg1793"
   inkscape:version="1.2 (dc2aedaf03, 2022-05-15)"
   sodipodi:docname="telugu.svg"
   xmlns:inkscape="http://www.inkscape.org/namespaces/inkscape"
   xmlns:sodipodi="http://sodipodi.sourceforge.net/DTD/sodipodi-0.dtd"
   xmlns="http://www.w3.org/2000/svg"
   xmlns:svg="http://www.w3.org/2000/svg">
  <sodipodi:namedview
     id="namedview1795"
     pagecolor="#ffffff"
     bordercolor="#999999"
     borderopacity="1"
     inkscape:showpageshadow="0"
     inkscape:pageopacity="0"
     inkscape:pagecheckerboard="0"
     inkscape:deskcolor="#d1d1d1"
     inkscape:document-units="mm"
     showgrid="false"
     inkscape:zoom="0.79018659"
     inkscape:cx="429.0126"
     inkscape:cy="382.18821"
     inkscape:window-width="942"
     inkscape:window-height="1032"
     inkscape:window-x="8"
     inkscape:window-y="34"
     inkscape:window-maximized="0"
     inkscape:current-layer="layer1" />
  <defs
     id="defs1790" />
  <g
     inkscape:label="Layer 1"
     inkscape:groupmode="layer"
     id="layer1"
     transform="translate(8.7988052,-47.597374)">
    <path
       d="m 120.75108,130.29382 c -19.67039,24.34593 -52.835851,30.16969 -52.835851,30.16969 0,0 -1.273726,-33.64899 18.39641,-57.99501 19.670641,-24.345965 52.835851,-30.169699 52.835851,-30.169699 0,0 1.27397,33.649029 -18.39641,57.995019 z"
       fill="#ffffff"
       id="path71272"
       style="fill:#ebc0cd;fill-opacity:1;stroke-width:0.975076" />
    <path
       d="m 52.719582,100.28944 c -4.713596,30.94243 13.350086,59.3601 13.350086,59.3601 0,0 25.706544,-21.74963 30.420393,-52.69206 4.713849,-30.942364 -13.350339,-59.360106 -13.350339,-59.360106 0,0 -25.706291,21.749763 -30.42014,52.692066 z"
       fill="#ffffff"
       id="path71274"
       style="fill:#ebc0cd;fill-opacity:1;stroke-width:0.975076" />
    <path
       d="m 66.328512,99.19488 c 11.710486,29.02612 0.673551,60.83902 0.673551,60.83902 0,0 -30.022638,-15.24754 -41.733125,-44.27369 -11.710486,-29.026224 -0.673804,-60.839129 -0.673804,-60.839129 0,0 30.023144,15.247784 41.733378,44.273799 z"
       fill="#3f3d56"
       id="path71276"
       style="fill:#9d5d7d;fill-opacity:1;stroke-width:0.975076" />
    <path
       d="m 112.38229,119.50626 c -29.330115,10.92569 -45.380227,40.52764 -45.380227,40.52764 0,0 31.504857,11.88834 60.835217,0.96262 29.33087,-10.92549 45.38048,-40.52755 45.38048,-40.52755 0,0 -31.50486,-11.8883 -60.83547,-0.96271 z"
       fill="#3f3d56"
       id="path71278"
       style="fill:#9d5d7d;fill-opacity:1;stroke-width:0.975076" />
    <circle
       cx="182.59547"
       cy="83.859299"
       r="6.6158481"
       fill="#ffffff"
       id="circle71284"
       style="fill:#e5ada4;fill-opacity:1;stroke-width:0.66946" />
    <circle
       cx="206.65012"
       cy="100.46638"
       r="6.6158481"
       fill="#3f3d56"
       id="circle71286"
       style="fill:#e5ada4;fill-opacity:1;stroke-width:0.66946" />
    <circle
       cx="192.40048"
       cy="116.75159"
       r="6.6158481"
       fill="#3f3d56"
       id="circle71288"
       style="fill:#bf4242;fill-opacity:1;stroke-width:0.66946" />
    <circle
       cx="209.70358"
       cy="130.4922"
       r="6.6158481"
       fill="#3f3d56"
       id="circle71290"
       style="fill:#bf4242;fill-opacity:1;stroke-width:0.66946" />
    <circle
       cx="187.31158"
       cy="151.86649"
       r="6.6158481"
       fill="#ffffff"
       id="circle71292"
       style="fill:#e5ada4;fill-opacity:1;stroke-width:0.66946" />
    <circle
       cx="268.20596"
       cy="102.25317"
       r="19.698771"
       opacity="0.1"
       id="circle71298"
       style="fill:#e3b84f;fill-opacity:1;stroke-width:0.66946" />
    <path
       d="m 271.52643,123.50681 a 25.901573,25.901573 0 1 1 25.90138,-25.901729 25.931063,25.931063 0 0 1 -25.90138,25.901729 z m 0,-50.46422 A 24.562652,24.562652 0 1 0 296.0888,97.605081 24.590535,24.590535 0 0 0 271.52643,73.04259 Z"
       fill="#e6e6e6"
       id="path71300"
       style="fill:#6c63ff;fill-opacity:1;stroke-width:0.66946" />
    <path
       d="m 272.37761,168.1543 c -5.25558,8.85274 -15.77735,12.31226 -15.77735,12.31226 0,0 -2.00117,-10.89363 3.2544,-19.7464 5.25532,-8.85276 15.7771,-12.31228 15.7771,-12.31228 0,0 2.00117,10.89366 -3.25415,19.74642 z"
       fill="#ffffff"
       id="path71302"
       style="fill:#1e7b5f;fill-opacity:1;stroke-width:0.66946" />
    <path
       d="m 269.14471,165.03723 c -9.03298,4.9395 -12.86175,15.33257 -12.86175,15.33257 0,0 10.8163,2.38455 19.84903,-2.55495 9.03273,-4.93951 12.86175,-15.33257 12.86175,-15.33257 0,0 -10.8163,-2.38457 -19.84903,2.55495 z"
       fill="#3f3d56"
       id="path71304"
       style="fill:#15533c;fill-opacity:1;stroke-width:0.66946" />
    <g
       aria-label=" తెలుగు "
       transform="matrix(0.66946102,0,0,0.66946102,-2554.8436,247.09333)"
       id="g71316"
       style="font-weight:bold;font-size:144px;line-height:1.25;font-family:FreeSans;-inkscape-font-specification:'FreeSans Bold';white-space:pre;shape-inside:url(#rect31356);fill:#e95678;fill-opacity:1;stroke:#e95678;stroke-width:7.55906;stroke-dasharray:none;stroke-opacity:1">
      <path
         d="m 3849.9922,-67.161862 q 3.0234,9.070312 13.2187,13.921875 10.2657,4.78125 26.2969,4.78125 17.5078,0 27.7031,-5.625 10.1954,-5.695313 12.5157,-16.523438 -6.2578,5.835938 -15.1875,5.835938 -8.5078,0 -13.7813,-4.78125 -5.2031,-4.851563 -5.2031,-12.867188 0,-6.046875 3.8672,-10.617187 3.8672,-4.640625 10.4062,-5.90625 -5.625,-1.476558 -14.5547,-1.476558 l 3.2344,-10.54688 q 20.9531,2.95313 31.4297,12.234375 10.5469,9.210938 10.5469,24.75 0,17.085938 -13.0078,27 -12.9375,9.84375 -37.1953,9.84375 -24.6094,0 -38.1094,-9.703125 -13.5,-9.773437 -13.5,-26.296875 0,-12.585937 7.3828,-20.601562 7.3828,-8.085933 18.9141,-8.085933 8.9296,0 14.0625,4.851558 5.2031,4.851562 5.2031,12.867187 0,8.929688 -6.1172,14.132813 -6.0469,5.203125 -16.6641,5.203125 -6.6093,0 -11.4609,-2.390625 z m -0.7031,-10.546875 q 4.6406,2.882812 10.4062,2.882812 13.0781,0 13.0781,-9.210937 0,-3.726563 -2.25,-5.625 -2.25,-1.96875 -6.2578,-1.96875 -5.7656,0 -9.7734,3.65625 -3.9375,3.65625 -5.2031,10.265625 z m 79.8047,-5.90625 q -1.9688,-3.796875 -5.2735,-5.90625 -3.3047,-2.109375 -7.3125,-2.109375 -4.2187,0 -6.8906,2.25 -2.6719,2.179687 -2.6719,6.1875 0,3.867187 2.461,6.117187 2.5312,2.25 7.0312,2.25 4.5703,0 7.9453,-2.320312 3.375,-2.320313 4.711,-6.46875 z m -39.5157,48.164062 z m 56.0391,0 z m -94.7109,-90.984375 v -10.82812 h 55.9687 q 8.5078,0 12.9375,1.125 4.5,1.125 7.5234,3.58593 3.0235,2.46094 4.5,5.83594 1.5469,3.30469 1.5469,8.15625 0,4.21875 -1.6875,8.08594 -1.6875,3.79687 -4.9922,6.11719 -3.3047,2.32031 -7.8047,3.30468 -4.4296,0.98438 -12.0234,0.98438 h -14.4844 v -10.82813 h 16.1719 q 5.5547,0 8.0156,-0.77343 2.5313,-0.84375 3.7266,-2.53125 1.2656,-1.75782 1.2656,-4.28907 0,-2.95312 -1.4765,-4.85156 -1.4063,-1.89844 -3.8672,-2.46094 -2.3907,-0.63281 -7.1719,-0.63281 z"
         style="font-family:'Droid Sans Mono Dotted for Powerline';-inkscape-font-specification:'Droid Sans Mono Dotted for Powerline Bold';fill:#e95678;fill-opacity:1;stroke:#e95678;stroke-width:7.55906;stroke-dasharray:none;stroke-opacity:1"
         id="path71306" />
      <path
         d="m 3962,-76.09155 q 0.6328,12.796875 9.7734,20.25 9.211,7.382813 24.6797,7.382813 16.1016,0 25.1016,-6.75 9.0703,-6.820313 9.0703,-19.054688 0,-8.648437 -4.9219,-15.1875 -4.8515,-6.539062 -14.3437,-10.40625 l 5.7656,-11.039065 q 12.5156,5.48438 18.9844,14.83594 6.539,9.28125 6.539,21.09375 0,17.71875 -11.8828,27.773438 -11.8828,10.054687 -33.8906,10.054687 -21.5859,0 -33.8906,-10.96875 -12.3047,-11.039062 -12.3047,-29.53125 0,-15.257812 7.5937,-24.257815 7.6641,-9 19.6875,-9 8.6485,0 13.8516,4.99219 5.2031,4.92188 5.2031,13.21875 0,9.351563 -5.8359,14.625 -5.8359,5.273438 -16.5938,5.273438 -6.539,0 -12.5859,-3.304688 z m 0.5625,-10.265625 q 4.9922,3.445313 11.3203,3.445313 5.836,0 8.7891,-2.390625 2.9531,-2.390625 2.9531,-6.820313 0,-3.9375 -2.3203,-6.257812 -2.25,-2.320308 -6.0469,-2.320308 -5.4844,0 -9.4219,3.726558 -3.8671,3.65625 -5.2734,10.617187 z m 34.1016,50.90625 z m 51.0468,0 z"
         style="font-family:'Droid Sans Mono Dotted for Powerline';-inkscape-font-specification:'Droid Sans Mono Dotted for Powerline Bold';fill:#e95678;fill-opacity:1;stroke:#e95678;stroke-width:7.55906;stroke-dasharray:none;stroke-opacity:1"
         id="path71308" />
      <path
         d="m 4034.6328,-54.857175 5.7656,-9.28125 q 5.9766,8.015625 11.9532,11.882813 6.0468,3.796875 13.0078,3.796875 7.3828,0 11.25,-4.640625 3.8672,-4.710938 3.8672,-13.570313 0,-10.6875 -6.1875,-18.914062 -6.1172,-8.226563 -19.0547,-14.203125 l 5.3437,-11.109378 q 14.836,6.46875 23.3438,18.000003 8.5078,11.53125 8.5078,25.453125 0,14.484375 -7.2422,22.429687 -7.2422,7.875 -20.7422,7.875 -8.7187,0 -16.1719,-4.429687 -7.3828,-4.429688 -13.6406,-13.289063 z"
         style="font-family:'Droid Sans Mono Dotted for Powerline';-inkscape-font-specification:'Droid Sans Mono Dotted for Powerline Bold';fill:#e95678;fill-opacity:1;stroke:#e95678;stroke-width:7.55906;stroke-dasharray:none;stroke-opacity:1"
         id="path71310" />
      <path
         d="m 4152.4766,-43.114987 q 6.9609,-9.84375 9.0703,-16.59375 2.1797,-6.820313 2.1797,-14.34375 0,-12.65625 -6.2579,-19.335938 -6.2578,-6.679685 -18.3515,-6.679685 -11.0391,0 -17.4375,6.890623 -6.3985,6.890625 -6.3985,18.984375 0,8.296875 2.6016,15.679687 2.6719,7.382813 8.6484,15.398438 l -12.0234,5.273437 q -11.1797,-17.4375 -11.1797,-36.351562 0,-10.476563 4.5,-18.984375 4.5,-8.578123 12.7969,-13.148433 8.3672,-4.57032 19.3359,-4.57032 16.8047,0 26.2266,9.42188 9.4922,9.35156 9.4922,25.734373 0,10.054687 -2.461,18.914062 -2.4609,8.859375 -8.789,18.984375 z m -13.0079,7.664062 z m 41.9766,0 z m -54.3516,-88.664065 q 1.4063,5.41407 2.7422,8.22657 1.336,2.8125 2.8125,3.9375 1.5469,1.05468 3.7969,1.05468 2.8125,0 5.3438,-1.75781 2.5312,-1.75781 7.1718,-7.73437 l 4.4297,-5.76563 q 7.4531,-9.77344 13.5703,-13.42969 6.1172,-3.72656 15.1875,-3.79687 l 0.7735,11.10937 q -4.9922,0.28125 -8.086,1.47657 -3.0937,1.19531 -5.7656,3.51562 -2.6016,2.25 -7.2422,8.22656 l -3.3047,4.28907 q -5.9062,7.66406 -11.1797,11.17968 -5.2031,3.51563 -11.7421,3.51563 -8.2266,0 -13.0782,-5.27344 -4.7812,-5.34375 -7.3828,-14.90625 z"
         style="font-family:'Droid Sans Mono Dotted for Powerline';-inkscape-font-specification:'Droid Sans Mono Dotted for Powerline Bold';fill:#e95678;fill-opacity:1;stroke:#e95678;stroke-width:7.55906;stroke-dasharray:none;stroke-opacity:1"
         id="path71312" />
      <path
         d="m 4168.3672,-54.857175 5.7656,-9.28125 q 5.9766,8.015625 11.9531,11.882813 6.0469,3.796875 13.0078,3.796875 7.3829,0 11.25,-4.640625 3.8672,-4.710938 3.8672,-13.570313 0,-10.6875 -6.1875,-18.914062 -6.1172,-8.226563 -19.0547,-14.203125 l 5.3438,-11.109378 q 14.8359,6.46875 23.3437,18.000003 8.5079,11.53125 8.5079,25.453125 0,14.484375 -7.2422,22.429687 -7.2422,7.875 -20.7422,7.875 -8.7188,0 -16.1719,-4.429687 -7.3828,-4.429688 -13.6406,-13.289063 z"
         style="font-family:'Droid Sans Mono Dotted for Powerline';-inkscape-font-specification:'Droid Sans Mono Dotted for Powerline Bold';fill:#e95678;fill-opacity:1;stroke:#e95678;stroke-width:7.55906;stroke-dasharray:none;stroke-opacity:1"
         id="path71314" />
    </g>
    <path
       d="m 7.8173229,203.87917 c 5.2553221,8.85274 15.7770981,12.31226 15.7770981,12.31226 0,0 2.001172,-10.89363 -3.25415,-19.7464 -5.255574,-8.85276 -15.7773511,-12.31228 -15.7773511,-12.31228 0,0 -2.0009188,10.89365 3.254403,19.74642 z"
       fill="#ffffff"
       id="path71318"
       style="fill:#4cb073;fill-opacity:1;stroke-width:0.66946" />
    <path
       d="m 11.049966,200.7621 c 9.032979,4.9395 12.861748,15.33256 12.861748,15.33256 0,0 -10.816044,2.38456 -19.8490238,-2.55495 -9.0327266,-4.9395 -12.8614954,-15.33257 -12.8614954,-15.33257 0,0 10.8160442,-2.38456 19.8487712,2.55496 z"
       fill="#3f3d56"
       id="path71320"
       style="fill:#249362;fill-opacity:1;stroke-width:0.66946" />
  </g>
</svg>
